<svg id="Capa_1" data-name="Capa 1" xmlns="http://www.w3.org/2000/svg" xmlns:xlink="http://www.w3.org/1999/xlink" viewBox="0 0 117.6 119.05"><defs><style>.cls-1{fill:none;}.cls-2{clip-path:url(#clip-path);}.cls-3{fill:#bc6ff1;}.cls-4{fill:#e5332a;}.cls-5{fill:#153c37;}.cls-6{fill:#dca678;}.cls-7{fill:#f8ba8c;}</style><clipPath id="clip-path" transform="translate(-153.8 -93.29)"><path class="cls-1" d="M271.4,152.09a58.8,58.8,0,1,1-58.8-58.8A58.8,58.8,0,0,1,271.4,152.09Z"/></clipPath></defs><g class="cls-2"><path class="cls-3" d="M271.4,152.09a58.8,58.8,0,1,1-58.8-58.8A58.8,58.8,0,0,1,271.4,152.09Z" transform="translate(-153.8 -93.29)"/><path class="cls-4" d="M235,157.68c.58-7.73,1.53-19.76,1.53-19.76,7-15.61-4.23-38.4-13.79-31.9-10.24-13.66-44.62,1.64-34.26,31.68a95.6,95.6,0,0,1-1.37,19.41c-2.6,13.35-7.27,27.77-3,31.08,6.08,4.65,50.84,5.17,53.57,1.69C242.12,184.24,234.4,165.41,235,157.68Z" transform="translate(-153.8 -93.29)"/><path class="cls-5" d="M245,186.46c-3.7-4.6-32.94-14.72-32.94-14.72s-28.64,11.19-32.95,14.72-5.92,25.88-5.92,25.88h76.89S248.73,191.07,245,186.46Z" transform="translate(-153.8 -93.29)"/><path class="cls-6" d="M221.16,177.14s-1.12,5.43-9.06,5.43-9-5.43-9-5.43a12.1,12.1,0,0,0,0-9.54c-2.21-5.15,20.81-6.2,18.11,0S221.16,177.14,221.16,177.14Z" transform="translate(-153.8 -93.29)"/><path class="cls-7" d="M237.7,142.38c0,4.09-2.9,9.71-4.85,9.71s-3.54-3.32-3.54-7.41a8.79,8.79,0,0,1,3.54-7.4C234.74,135.8,237.7,137.28,237.7,142.38Z" transform="translate(-153.8 -93.29)"/><path class="cls-7" d="M187.08,142.38c0,4.09,2.9,9.71,4.85,9.71s3.53-3.32,3.53-7.41a8.79,8.79,0,0,0-3.53-7.4C190,135.8,187.08,137.28,187.08,142.38Z" transform="translate(-153.8 -93.29)"/><path class="cls-7" d="M212.47,110c-13.73,0-19.8,9.62-19.8,24v18c0,12.5,14.44,23.19,19,23.19s20.6-12.5,20.6-24.34V134C232.27,119.6,226.2,110,212.47,110Z" transform="translate(-153.8 -93.29)"/><path class="cls-4" d="M232.27,144.19l.58-7.45c3-14.51-6.52-28.55-20.25-28.55S188.22,123.51,191.89,138l.78,8.48a10.15,10.15,0,0,0,3.1-6.25c.36-3.07,1.54-15.52,1.54-15.52l1.51,7.35,16.56,1.09,2.83-5.82,1.14,6.08,5.27.34L228,123.6s.47,8.82,1.52,15.48C230.19,143.24,232.27,144.19,232.27,144.19Z" transform="translate(-153.8 -93.29)"/></g></svg>